<?xml version="1.0" standalone="no"?>
<!DOCTYPE svg PUBLIC "-//W3C//DTD SVG 20010904//EN"
 "http://www.w3.org/TR/2001/REC-SVG-20010904/DTD/svg10.dtd">
<svg version="1.0" xmlns="http://www.w3.org/2000/svg"
 width="2000.000000pt" height="3556.000000pt" viewBox="0 0 2000.000000 3556.000000"
 preserveAspectRatio="xMidYMid meet">

<g transform="translate(0.000000,3556.000000) scale(0.100000,-0.100000)"
fill="#000000" stroke="none">
<path d="M0 17780 l0 -17780 10000 0 10000 0 0 17780 0 17780 -10000 0 -10000
0 0 -17780z m10099 4234 c357 -52 678 -257 876 -559 67 -102 89 -147 130 -259
108 -298 81 -672 -68 -946 -64 -118 -111 -182 -203 -279 -234 -246 -539 -383
-884 -398 -143 -6 -221 2 -376 39 l-90 21 -205 -67 c-228 -74 -388 -137 -473
-185 -31 -18 -60 -31 -63 -28 -3 3 84 108 192 233 l198 228 -34 25 c-69 52
-183 169 -244 250 -156 209 -235 450 -235 717 0 528 350 996 871 1162 85 27
161 44 254 55 79 10 258 5 354 -9z m-2883 -3831 c46 -15 148 -75 159 -94 3 -4
-9 -25 -27 -44 l-33 -36 -59 35 c-64 39 -120 51 -197 44 -125 -12 -180 -142
-94 -223 18 -17 84 -53 146 -80 235 -101 290 -154 297 -286 7 -117 -48 -202
-165 -256 -135 -62 -336 -29 -453 75 l-42 37 37 42 36 42 52 -40 c70 -53 170
-84 244 -75 63 7 98 23 133 61 21 23 25 36 25 91 0 57 -3 67 -30 94 -17 17
-91 57 -175 95 -197 89 -247 132 -269 233 -26 125 50 246 181 287 60 19 175
18 234 -2z m908 -22 c150 -77 230 -235 229 -456 -1 -224 -90 -388 -251 -463
-48 -22 -71 -27 -147 -27 -106 0 -172 19 -239 71 -114 87 -176 239 -176 427 1
154 42 276 122 363 88 96 159 125 299 121 86 -2 101 -5 163 -36z m707 -321
c68 -192 126 -350 129 -350 3 0 25 57 48 128 23 70 77 226 121 347 l79 220 76
3 76 3 0 -481 0 -480 -61 0 -61 0 3 390 c3 233 1 379 -5 363 -7 -23 -217 -609
-233 -650 -8 -20 -80 -17 -92 5 -9 18 -210 569 -232 640 -12 37 -14 -9 -11
-353 l4 -395 -56 0 -56 0 0 480 0 480 74 0 74 0 123 -350z m1339 295 l0 -55
-215 0 -215 0 0 -145 0 -145 180 0 180 0 0 -55 0 -55 -180 0 -180 0 0 -170 0
-170 220 0 220 0 0 -55 0 -55 -285 0 -285 0 0 473 c0 261 3 477 7 480 3 4 129
7 280 7 l273 0 0 -55z m820 0 l0 -55 -145 0 -145 0 0 -425 0 -425 -60 0 -60 0
0 425 0 425 -145 0 -145 0 0 55 0 55 350 0 350 0 0 -55z m462 -5 c11 -30 84
-245 163 -477 l143 -423 -67 0 -67 0 -45 145 -44 145 -172 0 -172 0 -46 -145
-46 -145 -64 0 -64 0 159 471 c88 259 163 475 166 480 3 6 35 9 71 7 l66 -3
19 -55z m558 -365 l0 -425 210 0 210 0 0 -55 0 -55 -270 0 -270 0 0 480 0 480
60 0 60 0 0 -425z m712 188 l3 -237 195 234 195 235 69 3 c43 2 67 -1 64 -7
-1 -6 -67 -89 -146 -186 l-143 -176 167 -287 c92 -158 169 -290 171 -294 2 -5
-27 -8 -66 -8 l-69 0 -88 153 c-48 83 -111 194 -141 245 l-54 92 -79 -92 -79
-93 -1 -152 0 -153 -65 0 -65 0 0 480 0 480 65 0 65 0 2 -237z"/>
<path d="M9555 21102 c-110 -54 -164 -137 -165 -252 0 -120 29 -157 430 -537
l75 -71 130 124 c72 68 172 163 223 211 116 109 152 173 152 272 0 111 -55
199 -160 252 -89 46 -228 34 -310 -26 -31 -23 -36 -24 -54 -10 -61 44 -103 59
-181 62 -73 4 -86 1 -140 -25z"/>
<path d="M7835 18064 c-103 -52 -156 -157 -163 -324 -5 -120 11 -200 56 -284
81 -150 281 -178 399 -54 126 131 131 460 9 605 -68 81 -203 107 -301 57z"/>
<path d="M11346 18025 c-9 -33 -41 -138 -70 -232 l-53 -173 138 0 c77 0 139 2
139 5 0 3 -25 85 -55 183 -30 97 -60 200 -68 227 l-14 50 -17 -60z"/>
</g>
</svg>
